# xmcd
#
# Track frame offsets:
#	150
#	12265
#	29402
#	46080
#	62675
#	75298
#	89917
#	105864
#	122755
#	138828
#	157172
#
# Disc length: 2425 seconds
# Revision: 4
# Processed by: cddbd v1.5.2PL0 Copyright (c) Steve Scherf et al.
# Submitted via: dBpowerAMP V12.0
#
DISCID=8209770b
DTITLE=Blues - the perfect blues collection 25 original albums (Sony 88697847832) - CD19 Hubert Sumlin and His Friends 1971 Kings Of Chicago Blues Vol.2
DYEAR=2011
DGENRE=Blues
TTITLE0=Blues For Elmore James
TTITLE1=Funky Roots
TTITLE2=I Can't Lose (Billy Boy Arnold, vx)
TTITLE3=One Down
TTITLE4=Willie's Back In Town
TTITLE5=Minor Feelings
TTITLE6=Every Day I Have The Blues (BBA, vx)
TTITLE7=Straight Talk
TTITLE8=Little By Little (Eddie Shaw, vx)
TTITLE9=When Evelyn's Not Around
TTITLE10=It Hurts Me Too (Joe Carter, vx)
EXTD=
EXTT0=
EXTT1=
EXTT2=
EXTT3=
EXTT4=
EXTT5=
EXTT6=
EXTT7=
EXTT8=
EXTT9=
EXTT10=
PLAYORDER=
